<svg fill="none" height="16" viewBox="0 0 16 16" width="16" xmlns="http://www.w3.org/2000/svg"><circle cx="8" cy="8" fill="#edeef2" r="8"/><path d="m7.09618 9.67828h1.09213v-.07255c.01527-.87828.2673-1.2716.91646-1.67256.68354-.41241 1.10363-.99284 1.10363-1.85202 0-1.24105-.93943-2.08115-2.34086-2.08115-1.28687 0-2.3179.75227-2.36754 2.12697h1.16086c.04582-.80955.62243-1.16468 1.20668-1.16468.64917 0 1.17614.4315 1.17614 1.1074 0 .56897-.35514.96993-.80955 1.25251-.71026.43532-1.13031.86682-1.13795 2.28353zm.57661 2.32172c.41623 0 .76373-.3399.76373-.7637 0-.4163-.3475-.7599-.76373-.7599-.42005 0-.76372.3436-.76372.7599 0 .4238.34367.7637.76372.7637z" fill="#565a69"/></svg>