<svg fill="none" height="18" viewBox="0 0 18 18" width="18" xmlns="http://www.w3.org/2000/svg"><circle cx="9" cy="9" fill="#e1e1e1" r="9"/><path d="m8.06493 10.8317h1.09213v-.0725c.01527-.87831.2673-1.27163.91644-1.67258.6836-.41241 1.1036-.99284 1.1036-1.85203 0-1.24105-.9394-2.08115-2.34081-2.08115-1.28687 0-2.3179.75227-2.36754 2.12697h1.16086c.04582-.80955.62243-1.16468 1.20668-1.16468.64917 0 1.17611.43151 1.17611 1.1074 0 .56898-.35511.96993-.80952 1.25251-.71026.43532-1.13031.86682-1.13795 2.28356zm.57661 2.3217c.41623 0 .76373-.3398.76373-.7637 0-.4162-.3475-.7599-.76373-.7599-.42005 0-.76372.3437-.76372.7599 0 .4239.34367.7637.76372.7637z" fill="#737373"/></svg>