<svg id="Layer_2" data-name="Layer 2" xmlns="http://www.w3.org/2000/svg" viewBox="0 0 503.98 501.26"><defs><style>.cls-1{fill:#231f20;}</style></defs><path class="cls-1" d="M326.22,149.2S356,135,383.87,150.55c-15.06-.09-30.26,3.34-42.25,7A49.52,49.52,0,0,0,326.22,149.2Z" transform="translate(-5.91 -13.6)"/><path class="cls-1" d="M353.49,169.16a144,144,0,0,1,47.16-4.78,98.87,98.87,0,0,1,12.62,17.72c-16.23-2.35-33.69.57-47.92,4.46A110.08,110.08,0,0,0,353.49,169.16Z" transform="translate(-5.91 -13.6)"/><path class="cls-1" d="M382.84,247.38A151.27,151.27,0,0,0,381,232a144.43,144.43,0,0,1,44.52-5.6,105.14,105.14,0,0,1-.82,17.2C410.55,242,395.62,244.17,382.84,247.38Z" transform="translate(-5.91 -13.6)"/><path class="cls-1" d="M381.91,276.15q.91-7,1.16-13.94a144.93,144.93,0,0,1,39.2-5.66,132.29,132.29,0,0,1-5.35,16.56C405.1,272.16,392.87,273.7,381.91,276.15Z" transform="translate(-5.91 -13.6)"/><path class="cls-1" d="M156.92,196.77s13.56,18.59,31.35,2.88,43.65-16.48,59.57-24.13,54-36.74,54-36.74c103.78-39.18,134.64,37.68,136.28,79.38.09,2.43.05,4.87-.1,7.31q-.06,1-.15,1.92a95.14,95.14,0,0,1-4.31,20.55c-.94,3-2,5.9-3.18,8.8a162.48,162.48,0,0,1-8.1,17c-2.41,4.42-5,8.66-7.54,12.66a245.25,245.25,0,0,1-27.52,35.22,195.09,195.09,0,0,0,23.58-35.08A145.66,145.66,0,0,0,379,291.66a147,147,0,0,1-21.12,47.56C303.9,419.3,350,469.78,350,469.78,319.67,411,385,352.46,435.14,287.54l.61-.78C451.34,266.53,464,245,474.66,224c47.43-93.14-3.43-173.69-55.29-181.1s-97.62,29.5-120.93,58.74-68.1,53.52-68.1,53.52c32.09-21.11,57.71-59.4,57.71-59.4-57.51-9.37-86.31,3.14-99.88,21.35S151.7,144,143,151.32c-7,5.92-5,20.14-4,25.45a5.6,5.6,0,0,1-.67,3.94,5.61,5.61,0,0,0-.43,4.84l3.92,10.36c50.59-37.09,70.39-32.3,70.39-32.3C180.59,170.66,156.92,196.77,156.92,196.77Zm194-95.93s70.74-48.17,98.91-1.16,2.65,132.08,2.65,132.08,7.11-34.47-11.18-76.73C417.3,99.69,350.89,100.84,350.89,100.84ZM205.53,132.77c-2.81,1.21-19,13.57-19,13.57,13.72-14.58,24.95-22.71,34.73-25,15.36-3.55,20.87,1.12,20.87,1.12s-6.7,8.25-15.64,11.63S208.35,131.56,205.53,132.77Z" transform="translate(-5.91 -13.6)"/><path class="cls-1" d="M424.26,213.47c-15.71-2.08-32.49.67-46.32,4.39a145.53,145.53,0,0,0-6.2-18.12,143.54,143.54,0,0,1,47.59-4.57A97,97,0,0,1,424.26,213.47Z" transform="translate(-5.91 -13.6)"/><path class="cls-1" d="M59.7,242.47c-15.87-9.54-48.29,6.38-48.29,6.38s18.53-21.31,53.94-19.55,52.31-12,66-20a136.18,136.18,0,0,0,24.67-19.12s-28.77,50.52-87.21,60.32c-9.1,1.52-19.87,1.24-28.06,3.64A131.17,131.17,0,0,0,5.91,270C18.9,247,59.7,242.47,59.7,242.47Z" transform="translate(-5.91 -13.6)"/><path class="cls-1" d="M292.23,85.17s-11.55-1.46-26.1-2.5c48.67-51,98.76-58.46,98.76-58.46-64.07,3.8-106.09,40-122.81,57.43-11.14-.07-21.51.6-27.84,2.72,0,0,85.37-103.09,197.16-60.4C411.4,24,324.82,33.78,292.23,85.17Z" transform="translate(-5.91 -13.6)"/><path class="cls-1" d="M383.16,384.47c34.16-65.24,119.22-139.05,123-217.76,0,0,25.81,68.34-58.74,165.68C379,411.22,363.86,441.64,406.19,514.78,407.57,517.17,339.92,467,383.16,384.47Z" transform="translate(-5.91 -13.6)"/></svg>